<?xml version="1.0" encoding="UTF-8"?><svg id="Layer_2" xmlns="http://www.w3.org/2000/svg" viewBox="0 0 1767.53 1906.09"><defs><style>.cls-1{fill:#ffbe2e;}.cls-2{fill:#289fe8;}.cls-3{fill:#108a9e;}</style></defs><g id="Layer_2-2"><g><g><path class="cls-3" d="M156.22,1805.11c2.32-1.04,4.58-2.19,6.77-3.42,0,0,0,0,0,0,12.74-7.19,23.09-16.92,30.74-28.92,7.71-12.08,11.62-25.44,11.62-39.7s-3.72-28.59-11.05-40.66c-7.31-12.03-17.31-21.67-29.74-28.65-12.43-6.98-26.26-10.52-41.09-10.52H3.95c-2.18,0-3.95,1.74-3.95,3.9v241.6c0,2.15,1.77,3.9,3.95,3.9H41.69c2.18,0,3.95-1.74,3.95-3.9v-86.19h60.7l57.15,88.29c.72,1.11,1.96,1.79,3.29,1.8l46.48,.34h.03c1.44,0,2.77-.78,3.46-2.02,.7-1.26,.64-2.79-.15-3.99l-60.37-91.85Zm-110.59-108.18H115.43c8.2,0,15.67,1.61,22.2,4.78,6.44,3.13,11.57,7.45,15.24,12.83,3.66,5.39,5.45,11.34,5.45,18.19s-1.64,12.76-4.88,18.22c-3.25,5.49-7.71,9.89-13.27,13.1-5.53,3.2-11.85,4.82-18.8,4.82H45.63v-71.94Z"/><path class="cls-3" d="M496.86,1686.63s0,0,0,0c-12.09-11.7-26.52-20.87-42.9-27.25-16.35-6.36-34.41-9.59-53.69-9.59s-37.65,3.23-53.88,9.59c-16.24,6.37-30.66,15.47-42.87,27.04-12.22,11.6-21.75,25.33-28.34,40.82-6.58,15.47-9.92,32.53-9.92,50.69s3.34,35.22,9.92,50.69c6.59,15.5,16.12,29.23,28.34,40.82,12.2,11.58,26.62,20.67,42.87,27.04,16.24,6.37,34.36,9.59,53.88,9.59s37.34-3.23,53.69-9.59c16.38-6.38,30.81-15.54,42.9-27.25,12.08-11.7,21.6-25.48,28.3-40.94,6.7-15.49,10.1-32.44,10.1-50.37s-3.4-34.87-10.1-50.37c-6.7-15.47-16.22-29.25-28.3-40.94Zm-7.93,91.31c0,12.08-2.19,23.35-6.51,33.53-4.31,10.16-10.48,19.13-18.33,26.67-7.86,7.54-17.29,13.48-28.05,17.63-10.79,4.17-22.82,6.29-35.78,6.29s-25-2.12-35.78-6.29c-10.76-4.16-20.26-10.1-28.24-17.65-7.95-7.52-14.11-16.48-18.3-26.62-4.21-10.18-6.35-21.47-6.35-33.56s2.14-23.38,6.35-33.56c4.19-10.14,10.35-19.09,18.3-26.62,7.97-7.55,17.47-13.48,28.24-17.65,10.8-4.17,22.84-6.29,35.78-6.29s24.98,2.12,35.78,6.29c10.76,4.17,20.2,10.1,28.05,17.63,7.85,7.54,14.02,16.51,18.33,26.67,4.32,10.17,6.51,21.45,6.51,33.53Z"/><path class="cls-3" d="M814.89,1686.63c-12.09-11.7-26.52-20.87-42.9-27.25-16.35-6.36-34.41-9.59-53.69-9.59s-37.65,3.23-53.88,9.59c-16.24,6.37-30.66,15.47-42.87,27.04-12.22,11.6-21.75,25.33-28.34,40.82-6.58,15.47-9.92,32.53-9.92,50.69s3.34,35.22,9.92,50.69c6.59,15.5,16.12,29.23,28.34,40.82,12.2,11.58,26.62,20.67,42.87,27.04,16.23,6.37,34.36,9.59,53.88,9.59s37.34-3.23,53.69-9.59c16.38-6.38,30.81-15.54,42.9-27.25,12.08-11.7,21.6-25.47,28.3-40.94,6.7-15.49,10.1-32.44,10.1-50.37s-3.4-34.87-10.1-50.37c-6.7-15.47-16.22-29.25-28.3-40.94Zm-7.93,91.31c0,12.08-2.19,23.35-6.51,33.53-4.31,10.16-10.48,19.13-18.33,26.67-7.86,7.54-17.29,13.48-28.05,17.63-10.79,4.17-22.82,6.29-35.78,6.29s-25-2.12-35.78-6.29c-10.76-4.16-20.26-10.1-28.24-17.65-7.95-7.53-14.11-16.48-18.3-26.62-4.21-10.18-6.35-21.47-6.35-33.56s2.14-23.38,6.35-33.56c4.19-10.13,10.35-19.09,18.3-26.62,7.97-7.55,17.47-13.48,28.24-17.65,10.8-4.17,22.83-6.29,35.78-6.29s24.98,2.12,35.78,6.29c10.76,4.17,20.2,10.1,28.05,17.63,7.85,7.54,14.02,16.51,18.33,26.67,4.32,10.17,6.51,21.45,6.51,33.53Z"/><path class="cls-3" d="M1176.81,1653.24h-35.65c-1.29,0-2.5,.62-3.24,1.67l-87.68,124.22-86.52-124.2c-.74-1.06-1.95-1.69-3.25-1.69h-37.04c-2.18,0-3.95,1.74-3.95,3.9v241.6c0,2.15,1.77,3.9,3.95,3.9h37.74c2.18,0,3.95-1.74,3.95-3.9v-100.44c0-20.92-.53-39.87-1.58-56.33-.23-3.57-.49-7.17-.8-10.78l72.1,100.42c.74,1.03,1.94,1.64,3.22,1.64h23.07c1.27,0,2.46-.6,3.2-1.62l73.25-100.6c-.34,4.02-.63,8.01-.88,11.97-1.05,16.69-1.58,35.29-1.58,55.29v100.44c0,2.15,1.77,3.9,3.95,3.9h37.74c2.18,0,3.95-1.74,3.95-3.9v-241.6c0-2.15-1.77-3.9-3.95-3.9Z"/><path class="cls-3" d="M1526.06,1765.65s0,0,0,0c-7.2-6.87-15.74-12.31-25.38-16.17-6.92-2.77-14.2-4.55-21.71-5.34l64.84-66.34c1.06-1.09,1.39-2.69,.84-4.1l-6.99-17.95c-.59-1.5-2.05-2.5-3.68-2.5h-154.12c-2.18,0-3.95,1.74-3.95,3.9v34.51c0,2.15,1.77,3.9,3.95,3.9h95.06l-65.38,66.21c-1.13,1.14-1.44,2.85-.78,4.31l11.53,25.54c.86,1.91,3.1,2.81,5.07,2.03,4.49-1.77,8.82-3.24,12.87-4.35,4.07-1.11,8.21-2.01,12.33-2.67,4.08-.65,8.16-.99,12.13-.99,7.8,0,15.1,1.41,21.69,4.17,6.38,2.69,11.57,6.82,15.44,12.28,3.82,5.41,5.76,12.38,5.76,20.72,0,9.22-2.38,17.02-7.07,23.2-4.81,6.33-11.09,11.2-18.69,14.47-7.72,3.33-15.95,5.02-24.46,5.02-7.98,0-15.28-1.55-21.7-4.62-6.57-3.13-12.74-7.47-18.35-12.91-5.74-5.55-11.28-12.1-16.48-19.46-.6-.85-1.52-1.43-2.55-1.61-1.03-.18-2.1,.05-2.95,.65l-29.36,20.36c-1.73,1.2-2.2,3.54-1.05,5.3,11.21,17.2,24.21,30.44,38.62,39.33,14.55,8.98,32.19,13.54,52.42,13.54,17.78,0,34.02-3.63,48.27-10.78,14.3-7.18,25.91-17.32,34.52-30.14,8.67-12.9,13.06-27.97,13.06-44.78,0-10.86-2.18-21.09-6.47-30.43-4.26-9.26-10.08-17.44-17.27-24.31Z"/><path class="cls-3" d="M1761.06,1789.96s0,0,0,0c-4.27-9.26-10.08-17.44-17.28-24.31-7.21-6.87-15.74-12.31-25.38-16.17-6.92-2.77-14.2-4.55-21.71-5.34l64.83-66.34c1.06-1.09,1.39-2.69,.84-4.1l-6.99-17.95c-.59-1.5-2.05-2.5-3.68-2.5h-154.12c-2.18,0-3.95,1.74-3.95,3.9v34.51c0,2.15,1.77,3.9,3.95,3.9h95.06l-65.38,66.21c-1.13,1.14-1.44,2.85-.78,4.31l11.53,25.54c.86,1.91,3.1,2.81,5.07,2.03,4.49-1.77,8.82-3.24,12.87-4.35,4.07-1.11,8.22-2.01,12.34-2.67,4.08-.65,8.16-.99,12.12-.99,7.8,0,15.1,1.41,21.69,4.17,6.38,2.69,11.57,6.82,15.44,12.28,3.82,5.41,5.76,12.38,5.76,20.72,0,9.22-2.38,17.02-7.07,23.2-4.8,6.33-11.09,11.19-18.69,14.47-7.73,3.33-15.95,5.02-24.46,5.02-7.98,0-15.28-1.55-21.7-4.62-6.57-3.13-12.74-7.47-18.35-12.91-5.74-5.55-11.28-12.1-16.47-19.46-.6-.85-1.52-1.43-2.55-1.61-1.03-.18-2.1,.05-2.95,.65l-29.36,20.36c-1.73,1.2-2.2,3.54-1.05,5.3,11.21,17.2,24.2,30.43,38.62,39.33,14.55,8.98,32.19,13.54,52.42,13.54,17.78,0,34.02-3.63,48.27-10.78,14.3-7.18,25.91-17.32,34.52-30.14,8.67-12.9,13.06-27.97,13.06-44.78,0-10.85-2.18-21.09-6.47-30.43Z"/></g><g><path class="cls-1" d="M584.63,845.35c68.62-118.86,181.25-196.46,305.42-224.13,162.4,97,217.34,306.78,122.44,471.16-94.91,164.38-304.05,221.69-469.25,129.55-38.12-121.37-27.23-257.71,41.39-376.57Z"/><path class="cls-3" d="M1303.93,727.74c-23.1-20.35-48.54-38.72-76.22-54.71-106.31-61.38-226.6-76.57-337.66-51.82-1.5-.9-3.01-1.79-4.52-2.66-117.94-68.09-259.25-59.05-365.51,11.48L883.77,0l420.16,727.74Z"/><path class="cls-2" d="M1047.13,1112.37c87.73-151.95,59.52-341.36-57.15-462.46,75.84-.47,150.87,19.16,217.73,57.77,50.38,29.09,93.54,67.15,128.28,113.13,33.57,44.43,57.94,94.37,72.42,148.43,14.49,54.06,18.35,109.49,11.49,164.76-7.1,57.2-25.44,111.74-54.53,162.12-29.08,50.38-67.15,93.54-113.13,128.28-44.43,33.57-94.37,57.94-148.43,72.42-54.06,14.49-109.49,18.35-164.76,11.49-57.2-7.1-111.74-25.44-162.12-54.53-66.87-38.6-121.38-93.76-158.89-159.68,163.22,40.48,341.35-29.78,429.08-181.73Z"/><path class="cls-3" d="M1400.02,1316.12c59.78-103.54,75.75-220.35,53.68-328.97l311.74,539.94h-623.47c105.11-35.19,198.28-107.43,258.06-210.97Z"/><path class="cls-3" d="M538.67,1219.33c1.52,.88,3.04,1.74,4.57,2.59,34.1,108.55,107.4,205.13,213.71,266.51,27.68,15.98,56.32,28.83,85.49,38.66H2.1S365.85,897.06,365.85,897.06c-7.95,127.28,54.87,254.18,172.82,322.28Z"/></g></g></g></svg>