<?xml version="1.0" encoding="UTF-8"?><svg id="Layer_2" xmlns="http://www.w3.org/2000/svg" viewBox="0 0 1764.13 1979.04"><defs><style>.cls-1{fill:#ffbe2e;}.cls-2{fill:#289fe8;}.cls-3{fill:#108a9e;}</style></defs><g id="Layer_2-2"><g><g><path class="cls-1" d="M583.33,845.35c68.62-118.86,181.25-196.46,305.42-224.13,162.4,97,217.34,306.78,122.44,471.16-94.91,164.38-304.05,221.69-469.25,129.55-38.12-121.37-27.23-257.71,41.39-376.57Z"/><path class="cls-3" d="M1302.63,727.74c-23.1-20.35-48.54-38.72-76.22-54.71-106.31-61.38-226.6-76.57-337.66-51.82-1.5-.9-3.01-1.79-4.52-2.66-117.94-68.09-259.25-59.05-365.51,11.48L882.47,0l420.16,727.74Z"/><path class="cls-2" d="M1045.83,1112.37c87.73-151.95,59.52-341.36-57.15-462.46,75.84-.47,150.87,19.16,217.73,57.77,50.38,29.09,93.54,67.15,128.28,113.13,33.57,44.43,57.94,94.37,72.42,148.43,14.49,54.06,18.35,109.49,11.49,164.76-7.1,57.2-25.44,111.74-54.53,162.12-29.08,50.38-67.15,93.54-113.13,128.28-44.43,33.57-94.37,57.94-148.43,72.42-54.06,14.49-109.49,18.35-164.76,11.49-57.2-7.1-111.74-25.44-162.12-54.53-66.87-38.6-121.38-93.76-158.89-159.68,163.22,40.48,341.35-29.78,429.08-181.73Z"/><path class="cls-3" d="M1398.72,1316.12c59.78-103.54,75.75-220.35,53.68-328.97l311.74,539.94h-623.47c105.11-35.19,198.28-107.43,258.06-210.97Z"/><path class="cls-3" d="M537.37,1219.33c1.52,.88,3.04,1.74,4.57,2.59,34.1,108.55,107.4,205.13,213.71,266.51,27.68,15.98,56.32,28.83,85.49,38.66H.81S364.55,897.06,364.55,897.06c-7.95,127.28,54.87,254.18,172.82,322.28Z"/></g><g><path class="cls-3" d="M134.11,1884.69l37.65,94.35h-54.12l-29.41-73.64c-9.41,2.04-19.22,3.06-29.41,3.06h-11.76v70.59H0v-329.4H58.82c35.76,0,66.27,12.63,91.53,37.88,25.25,25.26,37.88,55.76,37.88,91.53s-12.63,66.27-37.88,91.53c-5.18,5.18-10.59,9.88-16.23,14.12Zm-87.06-23.29h11.76c22.74,0,42.15-8.04,58.23-24.12,16.08-16.08,24.12-35.49,24.12-58.23s-8.04-42.15-24.12-58.23c-16.08-16.08-35.49-24.12-58.23-24.12h-11.76v164.7Z"/><path class="cls-3" d="M387.52,1979.04c-45.49,0-84.31-16.08-116.47-48.23-32.16-32.15-48.23-70.98-48.23-116.47s16.08-84.31,48.23-116.47c32.15-32.15,70.98-48.23,116.47-48.23s84.31,16.08,116.47,48.23c32.15,32.16,48.23,70.98,48.23,116.47s-16.08,84.31-48.23,116.47c-32.16,32.16-70.98,48.23-116.47,48.23Zm0-282.34c-32.47,0-60.2,11.49-83.17,34.47-22.98,22.98-34.47,50.7-34.47,83.17s11.49,60.2,34.47,83.17c22.98,22.98,50.7,34.47,83.17,34.47s60.19-11.49,83.17-34.47c22.98-22.98,34.47-50.7,34.47-83.17s-11.49-60.19-34.47-83.17c-22.98-22.98-50.7-34.47-83.17-34.47Z"/><path class="cls-3" d="M755.5,1979.04c-45.49,0-84.31-16.08-116.47-48.23-32.16-32.15-48.23-70.98-48.23-116.47s16.08-84.31,48.23-116.47c32.15-32.15,70.98-48.23,116.47-48.23s84.31,16.08,116.47,48.23c32.15,32.16,48.23,70.98,48.23,116.47s-16.08,84.31-48.23,116.47c-32.16,32.16-70.98,48.23-116.47,48.23Zm0-282.34c-32.47,0-60.2,11.49-83.17,34.47-22.98,22.98-34.47,50.7-34.47,83.17s11.49,60.2,34.47,83.17c22.98,22.98,50.7,34.47,83.17,34.47s60.19-11.49,83.17-34.47c22.98-22.98,34.47-50.7,34.47-83.17s-11.49-60.19-34.47-83.17c-22.98-22.98-50.7-34.47-83.17-34.47Z"/><path class="cls-3" d="M967.5,1652l-1.18-2.35h52.47l54.59,111.29,54.59-111.29h52.47l-1.18,2.35v327.05h-47.06v-231.05l-58.82,119.76-58.82-119.76v231.05h-47.06v-327.05Z"/><path class="cls-3" d="M1391.01,1979.04h-70.59v-47.06h70.59c19.45,0,36.08-6.9,49.88-20.71,13.8-13.8,20.71-30.43,20.71-49.88s-6.9-36.08-20.71-49.88c-13.81-13.8-30.43-20.71-49.88-20.71h-66.59l67.06-94.11h-71.06v-47.06h162.58l-68.7,96.23c22.59,4.24,42.59,14.98,60,32.23,22.9,23.06,34.35,50.82,34.35,83.29s-11.49,60.2-34.47,83.17c-22.98,22.98-50.7,34.47-83.17,34.47Z"/><path class="cls-3" d="M1626.3,1979.04h-70.59v-47.06h70.59c19.45,0,36.08-6.9,49.88-20.71,13.8-13.8,20.71-30.43,20.71-49.88s-6.9-36.08-20.71-49.88c-13.81-13.8-30.43-20.71-49.88-20.71h-66.59l67.06-94.11h-71.06v-47.06h162.58l-68.7,96.23c22.59,4.24,42.59,14.98,60,32.23,22.9,23.06,34.35,50.82,34.35,83.29s-11.49,60.2-34.47,83.17c-22.98,22.98-50.7,34.47-83.17,34.47Z"/></g></g></g></svg>