<svg xmlns="http://www.w3.org/2000/svg" width="27" height="28" fill="none" viewBox="0 0 27 28"><path fill="#ffbe2e" d="M22.0699 27.0656C20.8759 27.0656 19.7564 26.546 18.9843 25.6534C17.1617 26.5776 15.1295 27.0656 13.0772 27.0656C5.86694 27.0656 0 21.1986 0 13.9913C0 6.78387 5.86694 0.914062 13.0772 0.914062C20.2846 0.914062 26.1486 6.79822 26.1515 14.0286L25.876 14.0314L26.1515 14.0286V14.0314V22.984C26.1515 25.2343 24.3202 27.0656 22.0699 27.0656ZM19.3288 24.1608L19.6215 24.6028C20.1669 25.4266 21.0825 25.9174 22.067 25.9174C23.6859 25.9174 25.0005 24.6 25.0005 22.984V14.0343C25.0005 7.43257 19.6502 2.06506 13.0743 2.06506C6.49841 2.06219 1.14813 7.41247 1.14813 13.9913C1.14813 20.57 6.49841 25.9203 13.0772 25.9203C15.1008 25.9203 17.1043 25.4008 18.8666 24.4191L19.3288 24.1608Z"/><path fill="#ffbe2e" fill-rule="evenodd" d="M12.5634 24.0836C18.1347 24.2989 22.8277 19.9474 23.0372 14.3675C23.0573 13.8853 23.043 13.4175 22.9942 12.9496C23.0143 13.5151 22.8621 14.1092 22.512 14.534C21.7226 15.4898 20.3649 15.2602 20.1411 14.2757C20.0234 13.7389 20.253 13.0874 20.7123 12.7803C18.1663 12.3755 17.443 14.8325 16.1111 16.1385C14.676 17.5507 12.4515 17.0398 12.0726 15.3635C11.8631 14.4336 12.2534 13.3027 13.0428 12.7515C11.7167 12.4444 10.7063 12.8348 9.77346 13.7705C8.88653 14.6517 8.25219 15.8228 7.17868 16.4514C6.16833 17.0513 4.76474 17.1087 3.86633 16.262C3.20329 15.6391 2.89042 14.6402 2.86172 13.5868C2.64931 19.1725 6.99211 23.8654 12.5634 24.0836Z" clip-rule="evenodd"/><path fill="#ffbe2e" fill-rule="evenodd" d="M12.0409 9.75823C17.1444 9.72378 16.4411 3.48657 11.9778 3.91138C7.02647 4.38498 3.05968 8.47232 2.8645 13.593C2.89321 14.6464 3.20607 15.6453 3.86911 16.2681C4.76753 17.112 6.17111 17.0575 7.18147 16.4576C7.62063 16.205 7.98229 15.8577 8.31812 15.4788C7.34795 16.6097 5.86399 16.0643 5.78075 14.6119C5.70325 13.194 6.48398 11.7617 7.60915 10.9236C8.82616 10.0079 10.4163 9.76397 12.0409 9.75823Z" clip-rule="evenodd"/><path fill="#ffbe2e" fill-rule="evenodd" d="M18.4849 6.41934C19.4263 6.45379 20.1583 7.24313 20.1181 8.18746C20.0836 9.12319 19.2943 9.85799 18.3615 9.82068C17.42 9.77762 16.6938 8.98828 16.7311 8.05256C16.7627 7.10822 17.5492 6.38203 18.4849 6.41934Z" clip-rule="evenodd"/><path fill="#ffbe2e" fill-rule="evenodd" d="M21.0222 9.65106C21.5791 9.67115 22.0125 10.139 21.9924 10.6987C21.9723 11.2584 21.4958 11.6976 20.939 11.6775C20.3821 11.6488 19.9487 11.1809 19.9688 10.6212C19.9918 10.0644 20.4654 9.63097 21.0222 9.65106Z" clip-rule="evenodd"/></svg>