<?xml version="1.0" encoding="UTF-8"?><svg id="Layer_2" xmlns="http://www.w3.org/2000/svg" viewBox="0 0 2332 2019.57"><defs><style>.cls-1{fill:#ffbe2e;}.cls-2{fill:#289fe8;}.cls-3{fill:#108a9e;}</style></defs><g id="Layer_2-2"><g><path class="cls-1" d="M770.39,1117.98c90.75-157.19,239.7-259.82,403.92-296.42,214.78,128.28,287.43,405.71,161.92,623.11-125.51,217.39-402.1,293.18-620.59,171.32-50.42-160.51-36.01-340.82,54.74-498.01Z"/><path class="cls-3" d="M1721.67,962.44c-30.55-26.91-64.19-51.21-100.81-72.35-140.59-81.17-299.68-101.26-446.55-68.53-1.98-1.19-3.97-2.36-5.98-3.52-155.98-90.05-342.86-78.09-483.38,15.18L1166,0l555.66,962.44Z"/><path class="cls-2" d="M1382.04,1471.11c116.02-200.96,78.71-451.44-75.59-611.61,100.3-.62,199.52,25.34,287.95,76.4,66.62,38.47,123.7,88.8,169.65,149.62,44.4,58.76,76.62,124.81,95.78,196.3,19.16,71.49,24.27,144.8,15.2,217.89-9.39,75.64-33.65,147.77-72.11,214.4-38.46,66.62-88.8,123.7-149.62,169.65-58.76,44.4-124.81,76.62-196.3,95.78-71.49,19.16-144.8,24.27-217.89,15.2-75.64-9.39-147.78-33.65-214.4-72.11-88.43-51.05-160.53-124-210.14-211.17,215.85,53.54,451.44-39.39,567.46-240.34Z"/><path class="cls-3" d="M1848.74,1740.56c79.06-136.93,100.18-291.41,70.99-435.07l412.27,714.08h-824.54c139.01-46.54,262.23-142.08,341.29-279.01Z"/><path class="cls-3" d="M709.61,1612.57c2.01,1.16,4.02,2.3,6.04,3.42,45.09,143.56,142.04,271.29,282.63,352.46,36.61,21.14,74.48,38.12,113.06,51.13H0s481.06-833.22,481.06-833.22c-10.51,168.33,72.57,336.16,228.55,426.21Z"/></g></g></svg>