<?xml version="1.0" encoding="UTF-8"?><svg id="Layer_2" xmlns="http://www.w3.org/2000/svg" viewBox="0 0 1743.94 329.4"><defs><style>.cls-1{fill:#108a9e;}</style></defs><g id="Logos"><g><path class="cls-1" d="M134.11,235.05l37.65,94.35h-54.12l-29.41-73.64c-9.41,2.04-19.22,3.06-29.41,3.06h-11.76v70.59H0V0H58.82c35.76,0,66.27,12.63,91.53,37.88,25.25,25.26,37.88,55.76,37.88,91.53s-12.63,66.27-37.88,91.53c-5.18,5.18-10.59,9.88-16.23,14.12Zm-87.06-23.29h11.76c22.74,0,42.15-8.04,58.23-24.12,16.08-16.08,24.12-35.49,24.12-58.23s-8.04-42.15-24.12-58.23c-16.08-16.08-35.49-24.12-58.23-24.12h-11.76V211.76Z"/><path class="cls-1" d="M387.52,329.4c-45.49,0-84.31-16.08-116.47-48.23-32.16-32.15-48.23-70.98-48.23-116.47s16.08-84.31,48.23-116.47C303.2,16.08,342.03,0,387.52,0s84.31,16.08,116.47,48.23c32.15,32.16,48.23,70.98,48.23,116.47s-16.08,84.31-48.23,116.47c-32.16,32.16-70.98,48.23-116.47,48.23Zm0-282.34c-32.47,0-60.2,11.49-83.17,34.47-22.98,22.98-34.47,50.7-34.47,83.17s11.49,60.2,34.47,83.17c22.98,22.98,50.7,34.47,83.17,34.47s60.19-11.49,83.17-34.47c22.98-22.98,34.47-50.7,34.47-83.17s-11.49-60.19-34.47-83.17c-22.98-22.98-50.7-34.47-83.17-34.47Z"/><path class="cls-1" d="M755.5,329.4c-45.49,0-84.31-16.08-116.47-48.23-32.16-32.15-48.23-70.98-48.23-116.47s16.08-84.31,48.23-116.47C671.19,16.08,710.01,0,755.5,0s84.31,16.08,116.47,48.23c32.15,32.16,48.23,70.98,48.23,116.47s-16.08,84.31-48.23,116.47c-32.16,32.16-70.98,48.23-116.47,48.23Zm0-282.34c-32.47,0-60.2,11.49-83.17,34.47-22.98,22.98-34.47,50.7-34.47,83.17s11.49,60.2,34.47,83.17c22.98,22.98,50.7,34.47,83.17,34.47s60.19-11.49,83.17-34.47c22.98-22.98,34.47-50.7,34.47-83.17s-11.49-60.19-34.47-83.17c-22.98-22.98-50.7-34.47-83.17-34.47Z"/><path class="cls-1" d="M967.5,2.35l-1.18-2.35h52.47l54.59,111.29L1127.96,0h52.47l-1.18,2.35V329.4h-47.06V98.35l-58.82,119.76-58.82-119.76v231.05h-47.06V2.35Z"/><path class="cls-1" d="M1391.01,329.4h-70.59v-47.06h70.59c19.45,0,36.08-6.9,49.88-20.71,13.8-13.8,20.71-30.43,20.71-49.88s-6.9-36.08-20.71-49.88c-13.81-13.8-30.43-20.71-49.88-20.71h-66.59l67.06-94.11h-71.06V0h162.58l-68.7,96.23c22.59,4.24,42.59,14.98,60,32.23,22.9,23.06,34.35,50.82,34.35,83.29s-11.49,60.2-34.47,83.17c-22.98,22.98-50.7,34.47-83.17,34.47Z"/><path class="cls-1" d="M1626.3,329.4h-70.59v-47.06h70.59c19.45,0,36.08-6.9,49.88-20.71,13.8-13.8,20.71-30.43,20.71-49.88s-6.9-36.08-20.71-49.88c-13.81-13.8-30.43-20.71-49.88-20.71h-66.59l67.06-94.11h-71.06V0h162.58l-68.7,96.23c22.59,4.24,42.59,14.98,60,32.23,22.9,23.06,34.35,50.82,34.35,83.29s-11.49,60.2-34.47,83.17c-22.98,22.98-50.7,34.47-83.17,34.47Z"/></g></g></svg>