<svg xmlns="http://www.w3.org/2000/svg" id="Layer_2" viewBox="0 0 1767.53 256.3"><defs><style>.cls-1{fill:#ffbe2e}</style></defs><g id="Logos"><g><path d="M156.22,155.32c2.32-1.04,4.58-2.19,6.77-3.42,0,0,0,0,0,0,12.74-7.19,23.09-16.92,30.74-28.92,7.71-12.08,11.62-25.44,11.62-39.7s-3.72-28.59-11.05-40.66c-7.31-12.03-17.31-21.67-29.74-28.65-12.43-6.98-26.26-10.52-41.09-10.52H3.95C1.77,3.45,0,5.2,0,7.35V248.95c0,2.15,1.77,3.9,3.95,3.9H41.69c2.18,0,3.95-1.74,3.95-3.9v-86.19h60.7l57.15,88.29c.72,1.11,1.96,1.79,3.29,1.8l46.48,.34h.03c1.44,0,2.77-.78,3.46-2.02,.7-1.26,.64-2.79-.15-3.99l-60.37-91.85ZM45.63,47.14H115.43c8.2,0,15.67,1.61,22.2,4.78,6.44,3.13,11.57,7.45,15.24,12.83,3.66,5.39,5.45,11.34,5.45,18.19s-1.64,12.76-4.88,18.22c-3.25,5.49-7.71,9.89-13.27,13.1-5.53,3.2-11.85,4.82-18.8,4.82H45.63V47.14Z" class="cls-1"/><path d="M496.86,36.84s0,0,0,0c-12.09-11.7-26.52-20.87-42.9-27.25-16.35-6.36-34.41-9.59-53.69-9.59s-37.65,3.23-53.88,9.59c-16.24,6.37-30.66,15.47-42.87,27.04-12.22,11.6-21.75,25.33-28.34,40.82-6.58,15.47-9.92,32.53-9.92,50.69s3.34,35.22,9.92,50.69c6.59,15.5,16.12,29.23,28.34,40.82,12.2,11.58,26.62,20.67,42.87,27.04,16.24,6.37,34.36,9.59,53.88,9.59s37.34-3.23,53.69-9.59c16.38-6.38,30.81-15.54,42.9-27.25,12.08-11.7,21.6-25.48,28.3-40.94,6.7-15.49,10.1-32.44,10.1-50.37s-3.4-34.87-10.1-50.37c-6.7-15.47-16.22-29.25-28.3-40.94Zm-7.93,91.31c0,12.08-2.19,23.35-6.51,33.53-4.31,10.16-10.48,19.13-18.33,26.67-7.86,7.54-17.29,13.48-28.05,17.63-10.79,4.17-22.82,6.29-35.78,6.29s-25-2.12-35.78-6.29c-10.76-4.16-20.26-10.1-28.24-17.65-7.95-7.52-14.11-16.48-18.3-26.62-4.21-10.18-6.35-21.47-6.35-33.56s2.14-23.38,6.35-33.56c4.19-10.14,10.35-19.09,18.3-26.62,7.97-7.55,17.47-13.48,28.24-17.65,10.8-4.17,22.84-6.29,35.78-6.29s24.98,2.12,35.78,6.29c10.76,4.17,20.2,10.1,28.05,17.63,7.85,7.54,14.02,16.51,18.33,26.67,4.32,10.17,6.51,21.45,6.51,33.53Z" class="cls-1"/><path d="M814.89,36.84c-12.09-11.7-26.52-20.87-42.9-27.25-16.35-6.36-34.41-9.59-53.69-9.59s-37.65,3.23-53.88,9.59c-16.24,6.37-30.66,15.47-42.87,27.04-12.22,11.6-21.75,25.33-28.34,40.82-6.58,15.47-9.92,32.53-9.92,50.69s3.34,35.22,9.92,50.69c6.59,15.5,16.12,29.23,28.34,40.82,12.2,11.58,26.62,20.67,42.87,27.04,16.23,6.37,34.36,9.59,53.88,9.59s37.34-3.23,53.69-9.59c16.38-6.38,30.81-15.54,42.9-27.25,12.08-11.7,21.6-25.47,28.3-40.94,6.7-15.49,10.1-32.44,10.1-50.37s-3.4-34.87-10.1-50.37c-6.7-15.47-16.22-29.25-28.3-40.94Zm-7.93,91.31c0,12.08-2.19,23.35-6.51,33.53-4.31,10.16-10.48,19.13-18.33,26.67-7.86,7.54-17.29,13.48-28.05,17.63-10.79,4.17-22.82,6.29-35.78,6.29s-25-2.12-35.78-6.29c-10.76-4.16-20.26-10.1-28.24-17.65-7.95-7.53-14.11-16.48-18.3-26.62-4.21-10.18-6.35-21.47-6.35-33.56s2.14-23.38,6.35-33.56c4.19-10.13,10.35-19.09,18.3-26.62,7.97-7.55,17.47-13.48,28.24-17.65,10.8-4.17,22.83-6.29,35.78-6.29s24.98,2.12,35.78,6.29c10.76,4.17,20.2,10.1,28.05,17.63,7.85,7.54,14.02,16.51,18.33,26.67,4.32,10.17,6.51,21.45,6.51,33.53Z" class="cls-1"/><path d="M1176.81,3.45h-35.65c-1.29,0-2.5,.62-3.24,1.67l-87.68,124.22L963.73,5.14c-.74-1.06-1.95-1.69-3.25-1.69h-37.04c-2.18,0-3.95,1.74-3.95,3.9V248.95c0,2.15,1.77,3.9,3.95,3.9h37.74c2.18,0,3.95-1.74,3.95-3.9v-100.44c0-20.92-.53-39.87-1.58-56.33-.23-3.57-.49-7.17-.8-10.78l72.1,100.42c.74,1.03,1.94,1.64,3.22,1.64h23.07c1.27,0,2.46-.6,3.2-1.62l73.25-100.6c-.34,4.02-.63,8.01-.88,11.97-1.05,16.69-1.58,35.29-1.58,55.29v100.44c0,2.15,1.77,3.9,3.95,3.9h37.74c2.18,0,3.95-1.74,3.95-3.9V7.35c0-2.15-1.77-3.9-3.95-3.9Z" class="cls-1"/><path d="M1526.06,115.86s0,0,0,0c-7.2-6.87-15.74-12.31-25.38-16.17-6.92-2.77-14.2-4.55-21.71-5.34l64.84-66.34c1.06-1.09,1.39-2.69,.84-4.1l-6.99-17.95c-.59-1.5-2.05-2.5-3.68-2.5h-154.12c-2.18,0-3.95,1.74-3.95,3.9V41.86c0,2.15,1.77,3.9,3.95,3.9h95.06l-65.38,66.21c-1.13,1.14-1.44,2.85-.78,4.31l11.53,25.54c.86,1.91,3.1,2.81,5.07,2.03,4.49-1.77,8.82-3.24,12.87-4.35,4.07-1.11,8.21-2.01,12.33-2.67,4.08-.65,8.16-.99,12.13-.99,7.8,0,15.1,1.41,21.69,4.17,6.38,2.69,11.57,6.82,15.44,12.28,3.82,5.41,5.76,12.38,5.76,20.72,0,9.22-2.38,17.02-7.07,23.2-4.81,6.33-11.09,11.2-18.69,14.47-7.72,3.33-15.95,5.02-24.46,5.02-7.98,0-15.28-1.55-21.7-4.62-6.57-3.13-12.74-7.47-18.35-12.91-5.74-5.55-11.28-12.1-16.48-19.46-.6-.85-1.52-1.43-2.55-1.61-1.03-.18-2.1,.05-2.95,.65l-29.36,20.36c-1.73,1.2-2.2,3.54-1.05,5.3,11.21,17.2,24.21,30.44,38.62,39.33,14.55,8.98,32.19,13.54,52.42,13.54,17.78,0,34.02-3.63,48.27-10.78,14.3-7.18,25.91-17.32,34.52-30.14,8.67-12.9,13.06-27.97,13.06-44.78,0-10.86-2.18-21.09-6.47-30.43-4.26-9.26-10.08-17.44-17.27-24.31Z" class="cls-1"/><path d="M1761.06,140.17s0,0,0,0c-4.27-9.26-10.08-17.44-17.28-24.31-7.21-6.87-15.74-12.31-25.38-16.17-6.92-2.77-14.2-4.55-21.71-5.34l64.83-66.34c1.06-1.09,1.39-2.69,.84-4.1l-6.99-17.95c-.59-1.5-2.05-2.5-3.68-2.5h-154.12c-2.18,0-3.95,1.74-3.95,3.9V41.86c0,2.15,1.77,3.9,3.95,3.9h95.06l-65.38,66.21c-1.13,1.14-1.44,2.85-.78,4.31l11.53,25.54c.86,1.91,3.1,2.81,5.07,2.03,4.49-1.77,8.82-3.24,12.87-4.35,4.07-1.11,8.22-2.01,12.34-2.67,4.08-.65,8.16-.99,12.12-.99,7.8,0,15.1,1.41,21.69,4.17,6.38,2.69,11.57,6.82,15.44,12.28,3.82,5.41,5.76,12.38,5.76,20.72,0,9.22-2.38,17.02-7.07,23.2-4.8,6.33-11.09,11.19-18.69,14.47-7.73,3.33-15.95,5.02-24.46,5.02-7.98,0-15.28-1.55-21.7-4.62-6.57-3.13-12.74-7.47-18.35-12.91-5.74-5.55-11.28-12.1-16.47-19.46-.6-.85-1.52-1.43-2.55-1.61-1.03-.18-2.1,.05-2.95,.65l-29.36,20.36c-1.73,1.2-2.2,3.54-1.05,5.3,11.21,17.2,24.2,30.43,38.62,39.33,14.55,8.98,32.19,13.54,52.42,13.54,17.78,0,34.02-3.63,48.27-10.78,14.3-7.18,25.91-17.32,34.52-30.14,8.67-12.9,13.06-27.97,13.06-44.78,0-10.85-2.18-21.09-6.47-30.43Z" class="cls-1"/></g></g></svg>